<svg width="55" height="48" viewBox="0 0 55 48" fill="none" xmlns="http://www.w3.org/2000/svg">
<path d="M0.0139952 17.0901V40.7151C0.0139952 44.7357 2.20531 47.2579 6.22571 47.2202C9.25387 47.1917 13.144 47.1199 17.3385 47.0541C19.6646 47.0176 21.8561 45.9474 23.3094 44.1308C24.4128 42.7515 25.014 41.0377 25.014 39.2713V28.3284C25.014 26.5174 24.2946 24.7806 23.014 23.5C21.7334 22.2194 19.9966 21.5 18.1856 21.5H14.3512C12.1533 21.5 9.643 20.9882 9.22744 18.8299C8.57004 15.4156 10.6077 10.1016 15.014 9C15.2999 8.92854 15.5721 8.86388 15.8314 8.80555C18.2417 8.26327 21.4213 9.6155 21.3912 7.14513C21.3674 5.18929 22.0208 0.123399 20.065 0.0932087C19.1117 0.0784922 17.8679 0.0557399 16.3418 0.026095C15.4667 0.00909442 14.5913 0.162699 13.7856 0.50475C8.35953 2.80819 5.27977 5.18258 2.21286 9.55072C0.674104 11.7423 0.0139952 14.4123 0.0139952 17.0901Z" fill="white"/>
<path d="M29.014 17.0901V40.7151C29.014 44.7357 31.2053 47.2579 35.2257 47.2202C38.2539 47.1917 42.144 47.1199 46.3385 47.0541C48.6646 47.0176 50.8561 45.9474 52.3094 44.1308C53.4128 42.7515 54.014 41.0377 54.014 39.2713V28.3284C54.014 26.5174 53.2946 24.7806 52.014 23.5C50.7334 22.2194 48.9966 21.5 47.1856 21.5H43.3512C41.1533 21.5 38.643 20.9882 38.2274 18.8299C37.57 15.4156 39.6077 10.1016 44.014 9C44.2999 8.92854 44.5721 8.86388 44.8314 8.80555C47.2417 8.26327 50.4213 9.6155 50.3912 7.14513C50.3674 5.18929 51.0208 0.123399 49.065 0.0932087C48.1117 0.0784922 46.8679 0.0557399 45.3418 0.026095C44.4667 0.00909442 43.5913 0.162699 42.7856 0.50475C37.3595 2.80819 34.2798 5.18258 31.2129 9.55072C29.6741 11.7423 29.014 14.4123 29.014 17.0901Z" fill="white"/>
</svg>
